<svg width="313" height="40" viewBox="0 0 313 40" fill="none" xmlns="http://www.w3.org/2000/svg">
<rect x="0.5" y="0.5" width="312" height="39" rx="19.5" fill="#08040D"/>
<path d="M35 14V21.5" stroke="url(#paint0_linear_179485_4105)" stroke-width="1.5" stroke-linecap="round" stroke-linejoin="round"/>
<path d="M37.0812 28.25C37.8316 27.099 38.8573 26.1534 40.0655 25.4989C41.2736 24.8444 42.6259 24.5016 43.9999 24.5016C45.374 24.5016 46.7263 24.8444 47.9344 25.4989C49.1425 26.1534 50.1682 27.099 50.9187 28.25" stroke="url(#paint1_linear_179485_4105)" stroke-width="1.5" stroke-linecap="round" stroke-linejoin="round"/>
<path d="M53 14L44 17L35 14L44 11L53 14Z" stroke="url(#paint2_linear_179485_4105)" stroke-width="1.5" stroke-linecap="round" stroke-linejoin="round"/>
<path d="M47.8719 15.7063C48.5599 16.4576 49.0144 17.3928 49.1801 18.3979C49.3458 19.4031 49.2155 20.4347 48.805 21.3671C48.3946 22.2994 47.7218 23.0922 46.8686 23.6488C46.0154 24.2055 45.0187 24.5018 44 24.5018C42.9813 24.5018 41.9846 24.2055 41.1314 23.6488C40.2782 23.0922 39.6054 22.2994 39.195 21.3671C38.7845 20.4347 38.6542 19.4031 38.8199 18.3979C38.9856 17.3928 39.4401 16.4576 40.1281 15.7063" stroke="url(#paint3_linear_179485_4105)" stroke-width="1.5" stroke-linecap="round" stroke-linejoin="round"/>
<path d="M69.8011 13.8636H71.5511V22.1136C71.5511 22.8598 71.4034 23.4981 71.108 24.0284C70.8163 24.5587 70.4053 24.964 69.875 25.2443C69.3447 25.5208 68.7235 25.6591 68.0114 25.6591C67.3561 25.6591 66.767 25.5398 66.2443 25.3011C65.7254 25.0625 65.3144 24.7159 65.0114 24.2614C64.7121 23.803 64.5625 23.2462 64.5625 22.5909H66.3068C66.3068 22.9129 66.3807 23.1913 66.5284 23.4261C66.6799 23.661 66.8864 23.8447 67.1477 23.9773C67.4129 24.1061 67.7159 24.1705 68.0568 24.1705C68.428 24.1705 68.7424 24.0928 69 23.9375C69.2614 23.7784 69.4602 23.5455 69.5966 23.2386C69.733 22.9318 69.8011 22.5568 69.8011 22.1136V13.8636ZM79.4986 21.8807V16.7727H81.2031V25.5H79.5327V23.9886H79.4418C79.241 24.4545 78.919 24.8428 78.4759 25.1534C78.0365 25.4602 77.4891 25.6136 76.8338 25.6136C76.2732 25.6136 75.777 25.4905 75.3452 25.2443C74.9171 24.9943 74.58 24.625 74.3338 24.1364C74.0914 23.6477 73.9702 23.0436 73.9702 22.3239V16.7727H75.669V22.1193C75.669 22.714 75.8338 23.1875 76.1634 23.5398C76.4929 23.892 76.9209 24.0682 77.4474 24.0682C77.7656 24.0682 78.0819 23.9886 78.3963 23.8295C78.7145 23.6705 78.9777 23.4299 79.1861 23.108C79.3982 22.786 79.5024 22.3769 79.4986 21.8807ZM85.1847 20.3182V25.5H83.4858V16.7727H85.1165V18.1932H85.2244C85.4252 17.7311 85.7396 17.3598 86.1676 17.0795C86.5994 16.7992 87.143 16.6591 87.7983 16.6591C88.393 16.6591 88.9138 16.7841 89.3608 17.0341C89.8078 17.2803 90.1544 17.6477 90.4006 18.1364C90.6468 18.625 90.7699 19.2292 90.7699 19.9489V25.5H89.071V20.1534C89.071 19.5208 88.9063 19.0265 88.5767 18.6705C88.2472 18.3106 87.7945 18.1307 87.2188 18.1307C86.8248 18.1307 86.4744 18.2159 86.1676 18.3864C85.8646 18.5568 85.6241 18.8068 85.446 19.1364C85.2718 19.4621 85.1847 19.8561 85.1847 20.3182ZM97.1222 16.7727V18.1364H92.3551V16.7727H97.1222ZM93.6335 14.6818H95.3324V22.9375C95.3324 23.267 95.3816 23.5152 95.4801 23.6818C95.5786 23.8447 95.7055 23.9564 95.8608 24.017C96.0199 24.0739 96.1922 24.1023 96.3778 24.1023C96.5142 24.1023 96.6335 24.0928 96.7358 24.0739C96.8381 24.0549 96.9176 24.0398 96.9744 24.0284L97.2812 25.4318C97.1828 25.4697 97.0426 25.5076 96.8608 25.5455C96.679 25.5871 96.4517 25.6098 96.179 25.6136C95.732 25.6212 95.3153 25.5417 94.929 25.375C94.5426 25.2083 94.2301 24.9508 93.9915 24.6023C93.7528 24.2538 93.6335 23.8163 93.6335 23.2898V14.6818ZM101.541 25.6932C100.988 25.6932 100.488 25.5909 100.041 25.3864C99.5942 25.178 99.2401 24.8769 98.9787 24.483C98.7211 24.089 98.5923 23.6061 98.5923 23.0341C98.5923 22.5417 98.687 22.1364 98.8764 21.8182C99.0658 21.5 99.3215 21.2481 99.6435 21.0625C99.9654 20.8769 100.325 20.7367 100.723 20.642C101.121 20.5473 101.526 20.4754 101.939 20.4261C102.462 20.3655 102.886 20.3163 103.212 20.2784C103.537 20.2367 103.774 20.1705 103.922 20.0795C104.07 19.9886 104.143 19.8409 104.143 19.6364V19.5966C104.143 19.1004 104.003 18.7159 103.723 18.4432C103.446 18.1705 103.034 18.0341 102.484 18.0341C101.912 18.0341 101.462 18.161 101.132 18.4148C100.806 18.6648 100.581 18.9432 100.456 19.25L98.8594 18.8864C99.0488 18.3561 99.3253 17.928 99.6889 17.6023C100.056 17.2727 100.479 17.0341 100.956 16.8864C101.433 16.7348 101.935 16.6591 102.462 16.6591C102.81 16.6591 103.179 16.7008 103.57 16.7841C103.964 16.8636 104.331 17.0114 104.672 17.2273C105.017 17.4432 105.299 17.7519 105.518 18.1534C105.738 18.5511 105.848 19.0682 105.848 19.7045V25.5H104.189V24.3068H104.121C104.011 24.5265 103.846 24.7424 103.626 24.9545C103.407 25.1667 103.125 25.3428 102.78 25.483C102.435 25.6231 102.022 25.6932 101.541 25.6932ZM101.911 24.3295C102.38 24.3295 102.782 24.2367 103.115 24.0511C103.452 23.8655 103.708 23.6231 103.882 23.3239C104.06 23.0208 104.149 22.697 104.149 22.3523V21.2273C104.089 21.2879 103.971 21.3447 103.797 21.3977C103.626 21.447 103.431 21.4905 103.212 21.5284C102.992 21.5625 102.778 21.5947 102.57 21.625C102.361 21.6515 102.187 21.6742 102.047 21.6932C101.717 21.7348 101.416 21.8049 101.143 21.9034C100.875 22.0019 100.659 22.1439 100.496 22.3295C100.337 22.5114 100.257 22.7538 100.257 23.0568C100.257 23.4773 100.412 23.7955 100.723 24.0114C101.034 24.2235 101.429 24.3295 101.911 24.3295ZM113.253 19.8466V21.3182H108.094V19.8466H113.253ZM122.057 18.9034L120.517 19.1761C120.453 18.9792 120.35 18.7917 120.21 18.6136C120.074 18.4356 119.888 18.2898 119.653 18.1761C119.419 18.0625 119.125 18.0057 118.773 18.0057C118.292 18.0057 117.89 18.1136 117.568 18.3295C117.246 18.5417 117.085 18.8163 117.085 19.1534C117.085 19.4451 117.193 19.6799 117.409 19.858C117.625 20.036 117.973 20.1818 118.455 20.2955L119.841 20.6136C120.644 20.7992 121.242 21.0852 121.636 21.4716C122.03 21.858 122.227 22.3598 122.227 22.9773C122.227 23.5 122.076 23.9659 121.773 24.375C121.473 24.7803 121.055 25.0985 120.517 25.3295C119.983 25.5606 119.364 25.6761 118.659 25.6761C117.682 25.6761 116.884 25.4678 116.267 25.0511C115.65 24.6307 115.271 24.0341 115.131 23.2614L116.773 23.0114C116.875 23.4394 117.085 23.7633 117.403 23.983C117.722 24.1989 118.136 24.3068 118.648 24.3068C119.205 24.3068 119.65 24.1913 119.983 23.9602C120.316 23.7254 120.483 23.4394 120.483 23.1023C120.483 22.8295 120.381 22.6004 120.176 22.4148C119.975 22.2292 119.667 22.089 119.25 21.9943L117.773 21.6705C116.958 21.4848 116.356 21.1894 115.966 20.7841C115.58 20.3788 115.386 19.8655 115.386 19.2443C115.386 18.7292 115.53 18.2784 115.818 17.892C116.106 17.5057 116.504 17.2045 117.011 16.9886C117.519 16.7689 118.1 16.6591 118.756 16.6591C119.699 16.6591 120.441 16.8636 120.983 17.2727C121.525 17.678 121.883 18.2216 122.057 18.9034ZM127.857 25.6761C126.997 25.6761 126.256 25.4924 125.635 25.125C125.018 24.7538 124.54 24.233 124.203 23.5625C123.87 22.8883 123.703 22.0985 123.703 21.1932C123.703 20.2992 123.87 19.5114 124.203 18.8295C124.54 18.1477 125.01 17.6155 125.612 17.233C126.218 16.8504 126.927 16.6591 127.737 16.6591C128.23 16.6591 128.707 16.7405 129.169 16.9034C129.631 17.0663 130.046 17.322 130.413 17.6705C130.781 18.0189 131.071 18.4716 131.283 19.0284C131.495 19.5814 131.601 20.2538 131.601 21.0455V21.6477H124.663V20.375H129.936C129.936 19.928 129.845 19.5322 129.663 19.1875C129.482 18.839 129.226 18.5644 128.896 18.3636C128.571 18.1629 128.188 18.0625 127.749 18.0625C127.271 18.0625 126.855 18.1799 126.499 18.4148C126.146 18.6458 125.874 18.9489 125.68 19.3239C125.491 19.6951 125.396 20.0985 125.396 20.5341V21.5284C125.396 22.1117 125.499 22.608 125.703 23.017C125.911 23.4261 126.201 23.7386 126.572 23.9545C126.944 24.1667 127.377 24.2727 127.874 24.2727C128.196 24.2727 128.489 24.2273 128.754 24.1364C129.019 24.0417 129.249 23.9015 129.442 23.7159C129.635 23.5303 129.783 23.3011 129.885 23.0284L131.493 23.3182C131.364 23.7917 131.133 24.2064 130.8 24.5625C130.47 24.9148 130.055 25.1894 129.555 25.3864C129.059 25.5795 128.493 25.6761 127.857 25.6761ZM140.26 25.6932C139.707 25.6932 139.207 25.5909 138.76 25.3864C138.313 25.178 137.959 24.8769 137.697 24.483C137.44 24.089 137.311 23.6061 137.311 23.0341C137.311 22.5417 137.406 22.1364 137.595 21.8182C137.785 21.5 138.04 21.2481 138.362 21.0625C138.684 20.8769 139.044 20.7367 139.442 20.642C139.839 20.5473 140.245 20.4754 140.658 20.4261C141.18 20.3655 141.605 20.3163 141.93 20.2784C142.256 20.2367 142.493 20.1705 142.641 20.0795C142.788 19.9886 142.862 19.8409 142.862 19.6364V19.5966C142.862 19.1004 142.722 18.7159 142.442 18.4432C142.165 18.1705 141.752 18.0341 141.203 18.0341C140.631 18.0341 140.18 18.161 139.851 18.4148C139.525 18.6648 139.3 18.9432 139.175 19.25L137.578 18.8864C137.768 18.3561 138.044 17.928 138.408 17.6023C138.775 17.2727 139.197 17.0341 139.675 16.8864C140.152 16.7348 140.654 16.6591 141.18 16.6591C141.529 16.6591 141.898 16.7008 142.288 16.7841C142.682 16.8636 143.05 17.0114 143.391 17.2273C143.735 17.4432 144.018 17.7519 144.237 18.1534C144.457 18.5511 144.567 19.0682 144.567 19.7045V25.5H142.908V24.3068H142.839C142.73 24.5265 142.565 24.7424 142.345 24.9545C142.125 25.1667 141.843 25.3428 141.499 25.483C141.154 25.6231 140.741 25.6932 140.26 25.6932ZM140.629 24.3295C141.099 24.3295 141.5 24.2367 141.834 24.0511C142.171 23.8655 142.427 23.6231 142.601 23.3239C142.779 23.0208 142.868 22.697 142.868 22.3523V21.2273C142.807 21.2879 142.69 21.3447 142.516 21.3977C142.345 21.447 142.15 21.4905 141.93 21.5284C141.711 21.5625 141.497 21.5947 141.288 21.625C141.08 21.6515 140.906 21.6742 140.766 21.6932C140.436 21.7348 140.135 21.8049 139.862 21.9034C139.593 22.0019 139.377 22.1439 139.214 22.3295C139.055 22.5114 138.976 22.7538 138.976 23.0568C138.976 23.4773 139.131 23.7955 139.442 24.0114C139.752 24.2235 140.148 24.3295 140.629 24.3295ZM154.484 23.5455V15.8636H156.013V23.5455H154.484ZM151.411 20.4659V18.9432H159.092V20.4659H151.411ZM161.229 25.5V24.2273L165.166 20.1477C165.587 19.7045 165.933 19.3163 166.206 18.983C166.482 18.6458 166.689 18.3258 166.825 18.0227C166.962 17.7197 167.03 17.3977 167.03 17.0568C167.03 16.6705 166.939 16.3371 166.757 16.0568C166.575 15.7727 166.327 15.5549 166.013 15.4034C165.698 15.2481 165.344 15.1705 164.95 15.1705C164.534 15.1705 164.17 15.2557 163.859 15.4261C163.549 15.5966 163.31 15.8371 163.143 16.1477C162.977 16.4583 162.893 16.822 162.893 17.2386H161.217C161.217 16.5303 161.38 15.911 161.706 15.3807C162.032 14.8504 162.479 14.4394 163.047 14.1477C163.615 13.8523 164.261 13.7045 164.984 13.7045C165.715 13.7045 166.359 13.8504 166.916 14.142C167.477 14.4299 167.914 14.8239 168.229 15.3239C168.543 15.8201 168.7 16.3807 168.7 17.0057C168.7 17.4375 168.619 17.8598 168.456 18.2727C168.297 18.6856 168.018 19.1458 167.621 19.6534C167.223 20.1572 166.67 20.7689 165.962 21.4886L163.649 23.9091V23.9943H168.888V25.5H161.229ZM172.183 25.608C171.873 25.608 171.606 25.4981 171.382 25.2784C171.159 25.0549 171.047 24.786 171.047 24.4716C171.047 24.161 171.159 23.8958 171.382 23.6761C171.606 23.4527 171.873 23.3409 172.183 23.3409C172.494 23.3409 172.761 23.4527 172.984 23.6761C173.208 23.8958 173.32 24.161 173.32 24.4716C173.32 24.6799 173.267 24.8712 173.161 25.0455C173.058 25.2159 172.922 25.3523 172.751 25.4545C172.581 25.5568 172.392 25.608 172.183 25.608ZM179.226 25.6591C178.514 25.6591 177.874 25.5227 177.305 25.25C176.741 24.9735 176.29 24.5947 175.953 24.1136C175.616 23.6326 175.436 23.0833 175.413 22.4659H177.118C177.16 22.9659 177.381 23.3769 177.783 23.6989C178.184 24.0208 178.665 24.1818 179.226 24.1818C179.673 24.1818 180.069 24.0795 180.413 23.875C180.762 23.6667 181.035 23.3807 181.232 23.017C181.432 22.6534 181.533 22.2386 181.533 21.7727C181.533 21.2992 181.43 20.8769 181.226 20.5057C181.021 20.1345 180.739 19.8428 180.379 19.6307C180.023 19.4186 179.614 19.3106 179.152 19.3068C178.8 19.3068 178.446 19.3674 178.089 19.4886C177.733 19.6098 177.446 19.7689 177.226 19.9659L175.618 19.7273L176.271 13.8636H182.669V15.3693H177.732L177.362 18.625H177.43C177.658 18.4053 177.959 18.2216 178.334 18.0739C178.713 17.9261 179.118 17.8523 179.55 17.8523C180.258 17.8523 180.889 18.0208 181.442 18.358C181.999 18.6951 182.436 19.1553 182.754 19.7386C183.076 20.3182 183.235 20.9848 183.232 21.7386C183.235 22.4924 183.065 23.1648 182.72 23.7557C182.379 24.3466 181.906 24.8125 181.3 25.1534C180.697 25.4905 180.006 25.6591 179.226 25.6591ZM189.358 25.6932C188.46 25.6894 187.693 25.4527 187.057 24.983C186.42 24.5133 185.934 23.8295 185.597 22.9318C185.259 22.0341 185.091 20.9527 185.091 19.6875C185.091 18.4261 185.259 17.3485 185.597 16.4545C185.938 15.5606 186.426 14.8788 187.062 14.4091C187.703 13.9394 188.468 13.7045 189.358 13.7045C190.248 13.7045 191.011 13.9413 191.648 14.4148C192.284 14.8845 192.771 15.5663 193.108 16.4602C193.449 17.3504 193.619 18.4261 193.619 19.6875C193.619 20.9564 193.451 22.0398 193.114 22.9375C192.777 23.8314 192.29 24.5152 191.653 24.9886C191.017 25.4583 190.252 25.6932 189.358 25.6932ZM189.358 24.1761C190.146 24.1761 190.761 23.7917 191.205 23.0227C191.652 22.2538 191.875 21.142 191.875 19.6875C191.875 18.7216 191.773 17.9053 191.568 17.2386C191.367 16.5682 191.078 16.0606 190.699 15.7159C190.324 15.3674 189.877 15.1932 189.358 15.1932C188.574 15.1932 187.958 15.5795 187.511 16.3523C187.064 17.125 186.839 18.2367 186.835 19.6875C186.835 20.6572 186.936 21.4773 187.136 22.1477C187.341 22.8144 187.631 23.3201 188.006 23.6648C188.381 24.0057 188.831 24.1761 189.358 24.1761ZM199.686 25.6932C198.788 25.6894 198.021 25.4527 197.385 24.983C196.749 24.5133 196.262 23.8295 195.925 22.9318C195.588 22.0341 195.419 20.9527 195.419 19.6875C195.419 18.4261 195.588 17.3485 195.925 16.4545C196.266 15.5606 196.754 14.8788 197.391 14.4091C198.031 13.9394 198.796 13.7045 199.686 13.7045C200.576 13.7045 201.339 13.9413 201.976 14.4148C202.612 14.8845 203.099 15.5663 203.436 16.4602C203.777 17.3504 203.947 18.4261 203.947 19.6875C203.947 20.9564 203.779 22.0398 203.442 22.9375C203.105 23.8314 202.618 24.5152 201.982 24.9886C201.345 25.4583 200.58 25.6932 199.686 25.6932ZM199.686 24.1761C200.474 24.1761 201.089 23.7917 201.533 23.0227C201.98 22.2538 202.203 21.142 202.203 19.6875C202.203 18.7216 202.101 17.9053 201.896 17.2386C201.696 16.5682 201.406 16.0606 201.027 15.7159C200.652 15.3674 200.205 15.1932 199.686 15.1932C198.902 15.1932 198.286 15.5795 197.839 16.3523C197.393 17.125 197.167 18.2367 197.163 19.6875C197.163 20.6572 197.264 21.4773 197.464 22.1477C197.669 22.8144 197.959 23.3201 198.334 23.6648C198.709 24.0057 199.16 24.1761 199.686 24.1761ZM210.22 25.5V16.7727H211.851V18.1932H211.959C212.141 17.7121 212.438 17.3371 212.851 17.0682C213.264 16.7955 213.758 16.6591 214.334 16.6591C214.917 16.6591 215.406 16.7955 215.8 17.0682C216.197 17.3409 216.491 17.7159 216.68 18.1932H216.771C216.98 17.7273 217.311 17.3561 217.766 17.0795C218.22 16.7992 218.762 16.6591 219.391 16.6591C220.182 16.6591 220.828 16.9072 221.328 17.4034C221.832 17.8996 222.084 18.6477 222.084 19.6477V25.5H220.385V19.8068C220.385 19.2159 220.224 18.7879 219.902 18.5227C219.58 18.2576 219.196 18.125 218.749 18.125C218.196 18.125 217.766 18.2955 217.459 18.6364C217.152 18.9735 216.999 19.4072 216.999 19.9375V25.5H215.305V19.6989C215.305 19.2254 215.158 18.8447 214.862 18.5568C214.567 18.2689 214.182 18.125 213.709 18.125C213.387 18.125 213.089 18.2102 212.817 18.3807C212.548 18.5473 212.33 18.7803 212.163 19.0795C212 19.3788 211.919 19.7254 211.919 20.1193V25.5H210.22ZM228.122 25.6761C227.262 25.6761 226.522 25.4924 225.901 25.125C225.283 24.7538 224.806 24.233 224.469 23.5625C224.135 22.8883 223.969 22.0985 223.969 21.1932C223.969 20.2992 224.135 19.5114 224.469 18.8295C224.806 18.1477 225.276 17.6155 225.878 17.233C226.484 16.8504 227.192 16.6591 228.003 16.6591C228.495 16.6591 228.973 16.7405 229.435 16.9034C229.897 17.0663 230.312 17.322 230.679 17.6705C231.046 18.0189 231.336 18.4716 231.548 19.0284C231.76 19.5814 231.866 20.2538 231.866 21.0455V21.6477H224.929V20.375H230.202C230.202 19.928 230.111 19.5322 229.929 19.1875C229.747 18.839 229.491 18.5644 229.162 18.3636C228.836 18.1629 228.454 18.0625 228.014 18.0625C227.537 18.0625 227.12 18.1799 226.764 18.4148C226.412 18.6458 226.139 18.9489 225.946 19.3239C225.757 19.6951 225.662 20.0985 225.662 20.5341V21.5284C225.662 22.1117 225.764 22.608 225.969 23.017C226.177 23.4261 226.467 23.7386 226.838 23.9545C227.209 24.1667 227.643 24.2727 228.139 24.2727C228.461 24.2727 228.755 24.2273 229.02 24.1364C229.285 24.0417 229.514 23.9015 229.707 23.7159C229.901 23.5303 230.048 23.3011 230.151 23.0284L231.759 23.3182C231.63 23.7917 231.399 24.2064 231.065 24.5625C230.736 24.9148 230.321 25.1894 229.821 25.3864C229.325 25.5795 228.759 25.6761 228.122 25.6761ZM233.751 25.5V16.7727H235.382V18.1932H235.49C235.672 17.7121 235.969 17.3371 236.382 17.0682C236.795 16.7955 237.289 16.6591 237.865 16.6591C238.448 16.6591 238.937 16.7955 239.331 17.0682C239.729 17.3409 240.022 17.7159 240.212 18.1932H240.303C240.511 17.7273 240.842 17.3561 241.297 17.0795C241.751 16.7992 242.293 16.6591 242.922 16.6591C243.714 16.6591 244.359 16.9072 244.859 17.4034C245.363 17.8996 245.615 18.6477 245.615 19.6477V25.5H243.916V19.8068C243.916 19.2159 243.755 18.7879 243.433 18.5227C243.111 18.2576 242.727 18.125 242.28 18.125C241.727 18.125 241.297 18.2955 240.99 18.6364C240.683 18.9735 240.53 19.4072 240.53 19.9375V25.5H238.837V19.6989C238.837 19.2254 238.689 18.8447 238.393 18.5568C238.098 18.2689 237.714 18.125 237.24 18.125C236.918 18.125 236.621 18.2102 236.348 18.3807C236.079 18.5473 235.861 18.7803 235.695 19.0795C235.532 19.3788 235.45 19.7254 235.45 20.1193V25.5H233.751ZM248.028 25.5V13.8636H249.727V18.1875H249.83C249.928 18.0057 250.07 17.7955 250.256 17.5568C250.441 17.3182 250.699 17.1098 251.028 16.9318C251.358 16.75 251.794 16.6591 252.335 16.6591C253.04 16.6591 253.669 16.8371 254.222 17.1932C254.775 17.5492 255.208 18.0625 255.523 18.733C255.841 19.4034 256 20.2102 256 21.1534C256 22.0966 255.843 22.9053 255.528 23.5795C255.214 24.25 254.782 24.767 254.233 25.1307C253.684 25.4905 253.057 25.6705 252.352 25.6705C251.822 25.6705 251.388 25.5814 251.051 25.4034C250.718 25.2254 250.456 25.017 250.267 24.7784C250.078 24.5398 249.932 24.3277 249.83 24.142H249.688V25.5H248.028ZM249.693 21.1364C249.693 21.75 249.782 22.2879 249.96 22.75C250.138 23.2121 250.396 23.5739 250.733 23.8352C251.07 24.0928 251.483 24.2216 251.972 24.2216C252.479 24.2216 252.903 24.0871 253.244 23.8182C253.585 23.5455 253.843 23.1761 254.017 22.7102C254.195 22.2443 254.284 21.7197 254.284 21.1364C254.284 20.5606 254.197 20.0436 254.023 19.5852C253.852 19.1269 253.595 18.7652 253.25 18.5C252.909 18.2348 252.483 18.1023 251.972 18.1023C251.479 18.1023 251.062 18.2292 250.722 18.483C250.384 18.7367 250.129 19.0909 249.955 19.5455C249.78 20 249.693 20.5303 249.693 21.1364ZM257.908 25.5V16.7727H259.55V18.1591H259.641C259.8 17.6894 260.08 17.3201 260.482 17.0511C260.887 16.7784 261.345 16.642 261.857 16.642C261.963 16.642 262.088 16.6458 262.232 16.6534C262.379 16.661 262.495 16.6705 262.578 16.6818V18.3068C262.51 18.2879 262.389 18.267 262.214 18.2443C262.04 18.2178 261.866 18.2045 261.692 18.2045C261.29 18.2045 260.932 18.2898 260.618 18.4602C260.307 18.6269 260.061 18.8598 259.879 19.1591C259.697 19.4545 259.607 19.7917 259.607 20.1705V25.5H257.908ZM267.412 25.6761C266.594 25.6761 265.88 25.4886 265.27 25.1136C264.66 24.7386 264.187 24.214 263.849 23.5398C263.512 22.8655 263.344 22.0777 263.344 21.1761C263.344 20.2708 263.512 19.4792 263.849 18.8011C264.187 18.1231 264.66 17.5966 265.27 17.2216C265.88 16.8466 266.594 16.6591 267.412 16.6591C268.23 16.6591 268.944 16.8466 269.554 17.2216C270.164 17.5966 270.637 18.1231 270.974 18.8011C271.312 19.4792 271.48 20.2708 271.48 21.1761C271.48 22.0777 271.312 22.8655 270.974 23.5398C270.637 24.214 270.164 24.7386 269.554 25.1136C268.944 25.4886 268.23 25.6761 267.412 25.6761ZM267.418 24.25C267.948 24.25 268.387 24.1098 268.736 23.8295C269.084 23.5492 269.342 23.1761 269.509 22.7102C269.679 22.2443 269.764 21.7311 269.764 21.1705C269.764 20.6136 269.679 20.1023 269.509 19.6364C269.342 19.1667 269.084 18.7898 268.736 18.5057C268.387 18.2216 267.948 18.0795 267.418 18.0795C266.884 18.0795 266.44 18.2216 266.088 18.5057C265.74 18.7898 265.48 19.1667 265.31 19.6364C265.143 20.1023 265.06 20.6136 265.06 21.1705C265.06 21.7311 265.143 22.2443 265.31 22.7102C265.48 23.1761 265.74 23.5492 266.088 23.8295C266.44 24.1098 266.884 24.25 267.418 24.25ZM279.916 18.9034L278.376 19.1761C278.312 18.9792 278.21 18.7917 278.07 18.6136C277.933 18.4356 277.748 18.2898 277.513 18.1761C277.278 18.0625 276.984 18.0057 276.632 18.0057C276.151 18.0057 275.75 18.1136 275.428 18.3295C275.106 18.5417 274.945 18.8163 274.945 19.1534C274.945 19.4451 275.053 19.6799 275.268 19.858C275.484 20.036 275.833 20.1818 276.314 20.2955L277.7 20.6136C278.503 20.7992 279.102 21.0852 279.496 21.4716C279.89 21.858 280.087 22.3598 280.087 22.9773C280.087 23.5 279.935 23.9659 279.632 24.375C279.333 24.7803 278.914 25.0985 278.376 25.3295C277.842 25.5606 277.223 25.6761 276.518 25.6761C275.541 25.6761 274.744 25.4678 274.126 25.0511C273.509 24.6307 273.13 24.0341 272.99 23.2614L274.632 23.0114C274.734 23.4394 274.945 23.7633 275.263 23.983C275.581 24.1989 275.996 24.3068 276.507 24.3068C277.064 24.3068 277.509 24.1913 277.842 23.9602C278.176 23.7254 278.342 23.4394 278.342 23.1023C278.342 22.8295 278.24 22.6004 278.036 22.4148C277.835 22.2292 277.526 22.089 277.109 21.9943L275.632 21.6705C274.818 21.4848 274.215 21.1894 273.825 20.7841C273.439 20.3788 273.246 19.8655 273.246 19.2443C273.246 18.7292 273.39 18.2784 273.678 17.892C273.965 17.5057 274.363 17.2045 274.871 16.9886C275.378 16.7689 275.96 16.6591 276.615 16.6591C277.558 16.6591 278.301 16.8636 278.842 17.2727C279.384 17.678 279.742 18.2216 279.916 18.9034Z" fill="white"/>
<rect x="0.5" y="0.5" width="312" height="39" rx="19.5" stroke="#130B1D"/>
<defs>
<linearGradient id="paint0_linear_179485_4105" x1="35" y1="17.75" x2="36" y2="17.75" gradientUnits="userSpaceOnUse">
<stop stop-color="#4776E6"/>
<stop offset="1" stop-color="#8E54E9"/>
</linearGradient>
<linearGradient id="paint1_linear_179485_4105" x1="37.0812" y1="26.3758" x2="50.9187" y2="26.3758" gradientUnits="userSpaceOnUse">
<stop stop-color="#4776E6"/>
<stop offset="1" stop-color="#8E54E9"/>
</linearGradient>
<linearGradient id="paint2_linear_179485_4105" x1="35" y1="14" x2="53" y2="14" gradientUnits="userSpaceOnUse">
<stop stop-color="#4776E6"/>
<stop offset="1" stop-color="#8E54E9"/>
</linearGradient>
<linearGradient id="paint3_linear_179485_4105" x1="38.75" y1="20.1041" x2="49.25" y2="20.1041" gradientUnits="userSpaceOnUse">
<stop stop-color="#4776E6"/>
<stop offset="1" stop-color="#8E54E9"/>
</linearGradient>
</defs>
</svg>
